<?xml version="1.0" encoding="utf-8" ?>
<svg baseProfile="full" height="100%" version="1.1" width="100%" xmlns="http://www.w3.org/2000/svg" xmlns:ev="http://www.w3.org/2001/xml-events" xmlns:xlink="http://www.w3.org/1999/xlink"><defs /><rect fill="gray" height="101" stroke="black" stroke-width="2.5" width="101" x="0" y="0" /><text fill="black" x="51.0" y="51.0">0</text><rect fill="white" height="101" stroke="black" stroke-width="2.5" width="101" x="101" y="0" /><text fill="black" x="152.0" y="51.0">1</text><rect fill="white" height="101" stroke="black" stroke-width="2.5" width="101" x="202" y="0" /><text fill="black" x="253.0" y="51.0">2</text><rect fill="white" height="101" stroke="black" stroke-width="2.5" width="101" x="303" y="0" /><text fill="black" x="354.0" y="51.0">3</text><rect fill="white" height="101" stroke="black" stroke-width="2.5" width="101" x="0" y="101" /><text fill="black" x="51.0" y="152.0">4</text><rect fill="white" height="101" stroke="black" stroke-width="2.5" width="101" x="101" y="101" /><text fill="black" x="152.0" y="152.0">5</text><rect fill="white" height="101" stroke="black" stroke-width="2.5" width="101" x="202" y="101" /><text fill="black" x="253.0" y="152.0">6</text><rect fill="white" height="101" stroke="black" stroke-width="2.5" width="101" x="303" y="101" /><text fill="black" x="354.0" y="152.0">7</text><rect fill="white" height="101" stroke="black" stroke-width="2.5" width="101" x="0" y="202" /><text fill="black" x="51.0" y="253.0">8</text><rect fill="white" height="101" stroke="black" stroke-width="2.5" width="101" x="101" y="202" /><text fill="black" x="152.0" y="253.0">9</text><rect fill="white" height="101" stroke="black" stroke-width="2.5" width="101" x="202" y="202" /><text fill="black" x="253.0" y="253.0">10</text><rect fill="white" height="101" stroke="black" stroke-width="2.5" width="101" x="303" y="202" /><text fill="black" x="354.0" y="253.0">11</text><rect fill="white" height="101" stroke="black" stroke-width="2.5" width="101" x="0" y="303" /><text fill="black" x="51.0" y="354.0">12</text><rect fill="white" height="101" stroke="black" stroke-width="2.5" width="101" x="101" y="303" /><text fill="black" x="152.0" y="354.0">13</text><rect fill="white" height="101" stroke="black" stroke-width="2.5" width="101" x="202" y="303" /><text fill="black" x="253.0" y="354.0">14</text><rect fill="gray" height="101" stroke="black" stroke-width="2.5" width="101" x="303" y="303" /><text fill="black" x="354.0" y="354.0">15</text></svg>