<?xml version="1.0" encoding="utf-8" ?>
<svg baseProfile="full" height="100%" version="1.1" width="100%" xmlns="http://www.w3.org/2000/svg" xmlns:ev="http://www.w3.org/2001/xml-events" xmlns:xlink="http://www.w3.org/1999/xlink"><defs /><rect fill="gray" height="101" stroke="black" stroke-width="2.5" width="101" x="0" y="0" /><rect fill="white" height="101" stroke="black" stroke-width="2.5" width="101" x="101" y="0" /><polyline fill="none" points="107.0,51.0 152.0,51.0" stroke="black" stroke-width="2.5" /><polyline fill="none" points="117.0,61.0 107.0,51.0" stroke="black" stroke-width="2.5" /><polyline fill="none" points="117.0,41.0 107.0,51.0" stroke="black" stroke-width="2.5" /><rect fill="white" height="101" stroke="black" stroke-width="2.5" width="101" x="202" y="0" /><polyline fill="none" points="208.0,51.0 253.0,51.0" stroke="black" stroke-width="2.5" /><polyline fill="none" points="218.0,61.0 208.0,51.0" stroke="black" stroke-width="2.5" /><polyline fill="none" points="218.0,41.0 208.0,51.0" stroke="black" stroke-width="2.5" /><rect fill="white" height="101" stroke="black" stroke-width="2.5" width="101" x="303" y="0" /><polyline fill="none" points="354.0,51.0 354.0,96.0" stroke="black" stroke-width="2.5" /><polyline fill="none" points="364.0,86.0 354.0,96.0" stroke="black" stroke-width="2.5" /><polyline fill="none" points="344.0,86.0 354.0,96.0" stroke="black" stroke-width="2.5" /><polyline fill="none" points="309.0,51.0 354.0,51.0" stroke="black" stroke-width="2.5" /><polyline fill="none" points="319.0,61.0 309.0,51.0" stroke="black" stroke-width="2.5" /><polyline fill="none" points="319.0,41.0 309.0,51.0" stroke="black" stroke-width="2.5" /><rect fill="white" height="101" stroke="black" stroke-width="2.5" width="101" x="0" y="101" /><polyline fill="none" points="51.0,152.0 51.0,107.0" stroke="black" stroke-width="2.5" /><polyline fill="none" points="61.0,117.0 51.0,107.0" stroke="black" stroke-width="2.5" /><polyline fill="none" points="41.0,117.0 51.0,107.0" stroke="black" stroke-width="2.5" /><rect fill="white" height="101" stroke="black" stroke-width="2.5" width="101" x="101" y="101" /><polyline fill="none" points="152.0,152.0 152.0,107.0" stroke="black" stroke-width="2.5" /><polyline fill="none" points="162.0,117.0 152.0,107.0" stroke="black" stroke-width="2.5" /><polyline fill="none" points="142.0,117.0 152.0,107.0" stroke="black" stroke-width="2.5" /><polyline fill="none" points="107.0,152.0 152.0,152.0" stroke="black" stroke-width="2.5" /><polyline fill="none" points="117.0,162.0 107.0,152.0" stroke="black" stroke-width="2.5" /><polyline fill="none" points="117.0,142.0 107.0,152.0" stroke="black" stroke-width="2.5" /><rect fill="white" height="101" stroke="black" stroke-width="2.5" width="101" x="202" y="101" /><polyline fill="none" points="253.0,152.0 253.0,107.0" stroke="black" stroke-width="2.5" /><polyline fill="none" points="263.0,117.0 253.0,107.0" stroke="black" stroke-width="2.5" /><polyline fill="none" points="243.0,117.0 253.0,107.0" stroke="black" stroke-width="2.5" /><polyline fill="none" points="253.0,152.0 253.0,197.0" stroke="black" stroke-width="2.5" /><polyline fill="none" points="263.0,187.0 253.0,197.0" stroke="black" stroke-width="2.5" /><polyline fill="none" points="243.0,187.0 253.0,197.0" stroke="black" stroke-width="2.5" /><polyline fill="none" points="208.0,152.0 253.0,152.0" stroke="black" stroke-width="2.5" /><polyline fill="none" points="218.0,162.0 208.0,152.0" stroke="black" stroke-width="2.5" /><polyline fill="none" points="218.0,142.0 208.0,152.0" stroke="black" stroke-width="2.5" /><polyline fill="none" points="298.0,152.0 253.0,152.0" stroke="black" stroke-width="2.5" /><polyline fill="none" points="288.0,162.0 298.0,152.0" stroke="black" stroke-width="2.5" /><polyline fill="none" points="288.0,142.0 298.0,152.0" stroke="black" stroke-width="2.5" /><rect fill="white" height="101" stroke="black" stroke-width="2.5" width="101" x="303" y="101" /><polyline fill="none" points="354.0,152.0 354.0,197.0" stroke="black" stroke-width="2.5" /><polyline fill="none" points="364.0,187.0 354.0,197.0" stroke="black" stroke-width="2.5" /><polyline fill="none" points="344.0,187.0 354.0,197.0" stroke="black" stroke-width="2.5" /><rect fill="white" height="101" stroke="black" stroke-width="2.5" width="101" x="0" y="202" /><polyline fill="none" points="51.0,253.0 51.0,208.0" stroke="black" stroke-width="2.5" /><polyline fill="none" points="61.0,218.0 51.0,208.0" stroke="black" stroke-width="2.5" /><polyline fill="none" points="41.0,218.0 51.0,208.0" stroke="black" stroke-width="2.5" /><rect fill="white" height="101" stroke="black" stroke-width="2.5" width="101" x="101" y="202" /><polyline fill="none" points="152.0,253.0 152.0,208.0" stroke="black" stroke-width="2.5" /><polyline fill="none" points="162.0,218.0 152.0,208.0" stroke="black" stroke-width="2.5" /><polyline fill="none" points="142.0,218.0 152.0,208.0" stroke="black" stroke-width="2.5" /><polyline fill="none" points="152.0,253.0 152.0,298.0" stroke="black" stroke-width="2.5" /><polyline fill="none" points="162.0,288.0 152.0,298.0" stroke="black" stroke-width="2.5" /><polyline fill="none" points="142.0,288.0 152.0,298.0" stroke="black" stroke-width="2.5" /><polyline fill="none" points="107.0,253.0 152.0,253.0" stroke="black" stroke-width="2.5" /><polyline fill="none" points="117.0,263.0 107.0,253.0" stroke="black" stroke-width="2.5" /><polyline fill="none" points="117.0,243.0 107.0,253.0" stroke="black" stroke-width="2.5" /><polyline fill="none" points="197.0,253.0 152.0,253.0" stroke="black" stroke-width="2.5" /><polyline fill="none" points="187.0,263.0 197.0,253.0" stroke="black" stroke-width="2.5" /><polyline fill="none" points="187.0,243.0 197.0,253.0" stroke="black" stroke-width="2.5" /><rect fill="white" height="101" stroke="black" stroke-width="2.5" width="101" x="202" y="202" /><polyline fill="none" points="253.0,253.0 253.0,298.0" stroke="black" stroke-width="2.5" /><polyline fill="none" points="263.0,288.0 253.0,298.0" stroke="black" stroke-width="2.5" /><polyline fill="none" points="243.0,288.0 253.0,298.0" stroke="black" stroke-width="2.5" /><polyline fill="none" points="298.0,253.0 253.0,253.0" stroke="black" stroke-width="2.5" /><polyline fill="none" points="288.0,263.0 298.0,253.0" stroke="black" stroke-width="2.5" /><polyline fill="none" points="288.0,243.0 298.0,253.0" stroke="black" stroke-width="2.5" /><rect fill="white" height="101" stroke="black" stroke-width="2.5" width="101" x="303" y="202" /><polyline fill="none" points="354.0,253.0 354.0,298.0" stroke="black" stroke-width="2.5" /><polyline fill="none" points="364.0,288.0 354.0,298.0" stroke="black" stroke-width="2.5" /><polyline fill="none" points="344.0,288.0 354.0,298.0" stroke="black" stroke-width="2.5" /><rect fill="white" height="101" stroke="black" stroke-width="2.5" width="101" x="0" y="303" /><polyline fill="none" points="51.0,354.0 51.0,309.0" stroke="black" stroke-width="2.5" /><polyline fill="none" points="61.0,319.0 51.0,309.0" stroke="black" stroke-width="2.5" /><polyline fill="none" points="41.0,319.0 51.0,309.0" stroke="black" stroke-width="2.5" /><polyline fill="none" points="96.0,354.0 51.0,354.0" stroke="black" stroke-width="2.5" /><polyline fill="none" points="86.0,364.0 96.0,354.0" stroke="black" stroke-width="2.5" /><polyline fill="none" points="86.0,344.0 96.0,354.0" stroke="black" stroke-width="2.5" /><rect fill="white" height="101" stroke="black" stroke-width="2.5" width="101" x="101" y="303" /><polyline fill="none" points="197.0,354.0 152.0,354.0" stroke="black" stroke-width="2.5" /><polyline fill="none" points="187.0,364.0 197.0,354.0" stroke="black" stroke-width="2.5" /><polyline fill="none" points="187.0,344.0 197.0,354.0" stroke="black" stroke-width="2.5" /><rect fill="white" height="101" stroke="black" stroke-width="2.5" width="101" x="202" y="303" /><polyline fill="none" points="298.0,354.0 253.0,354.0" stroke="black" stroke-width="2.5" /><polyline fill="none" points="288.0,364.0 298.0,354.0" stroke="black" stroke-width="2.5" /><polyline fill="none" points="288.0,344.0 298.0,354.0" stroke="black" stroke-width="2.5" /><rect fill="gray" height="101" stroke="black" stroke-width="2.5" width="101" x="303" y="303" /></svg>