<?xml version="1.0" encoding="utf-8" ?>
<svg baseProfile="full" height="100%" version="1.1" width="100%" xmlns="http://www.w3.org/2000/svg" xmlns:ev="http://www.w3.org/2001/xml-events" xmlns:xlink="http://www.w3.org/1999/xlink"><defs /><rect fill="white" height="101" stroke="black" stroke-width="2.5" width="101" x="0" y="0" /><text fill="black" x="51.0" y="51.0">0</text><rect fill="white" height="101" stroke="black" stroke-width="2.5" width="101" x="101" y="0" /><text fill="black" x="152.0" y="51.0">1</text><rect fill="white" height="101" stroke="black" stroke-width="2.5" width="101" x="202" y="0" /><text fill="black" x="253.0" y="51.0">2</text><rect fill="white" height="101" stroke="black" stroke-width="2.5" width="101" x="303" y="0" /><text fill="black" x="354.0" y="51.0">3</text><rect fill="white" height="101" stroke="black" stroke-width="2.5" width="101" x="404" y="0" /><text fill="black" x="455.0" y="51.0">4</text><rect fill="white" height="101" stroke="black" stroke-width="2.5" width="101" x="505" y="0" /><text fill="black" x="556.0" y="51.0">5</text><rect fill="white" height="101" stroke="black" stroke-width="2.5" width="101" x="0" y="101" /><text fill="black" x="51.0" y="152.0">6</text><rect fill="black" height="101" stroke="black" stroke-width="2.5" width="101" x="101" y="101" /><text fill="white" x="152.0" y="152.0">7</text><rect fill="white" height="101" stroke="black" stroke-width="2.5" width="101" x="202" y="101" /><text fill="black" x="253.0" y="152.0">8</text><rect fill="white" height="101" stroke="black" stroke-width="2.5" width="101" x="303" y="101" /><text fill="black" x="354.0" y="152.0">9</text><rect fill="white" height="101" stroke="black" stroke-width="2.5" width="101" x="404" y="101" /><text fill="black" x="455.0" y="152.0">10</text><rect fill="white" height="101" stroke="black" stroke-width="2.5" width="101" x="505" y="101" /><text fill="black" x="556.0" y="152.0">11</text><rect fill="white" height="101" stroke="black" stroke-width="2.5" width="101" x="0" y="202" /><text fill="black" x="51.0" y="253.0">12</text><rect fill="black" height="101" stroke="black" stroke-width="2.5" width="101" x="101" y="202" /><text fill="white" x="152.0" y="253.0">13</text><rect fill="black" height="101" stroke="black" stroke-width="2.5" width="101" x="202" y="202" /><text fill="white" x="253.0" y="253.0">14</text><rect fill="white" height="101" stroke="black" stroke-width="2.5" width="101" x="303" y="202" /><text fill="black" x="354.0" y="253.0">15</text><rect fill="white" height="101" stroke="black" stroke-width="2.5" width="101" x="404" y="202" /><text fill="black" x="455.0" y="253.0">16</text><rect fill="white" height="101" stroke="black" stroke-width="2.5" width="101" x="505" y="202" /><text fill="black" x="556.0" y="253.0">17</text><rect fill="white" height="101" stroke="black" stroke-width="2.5" width="101" x="0" y="303" /><text fill="black" x="51.0" y="354.0">18</text><rect fill="white" height="101" stroke="black" stroke-width="2.5" width="101" x="101" y="303" /><text fill="black" x="152.0" y="354.0">19</text><rect fill="black" height="101" stroke="black" stroke-width="2.5" width="101" x="202" y="303" /><text fill="white" x="253.0" y="354.0">20</text><rect fill="white" height="101" stroke="black" stroke-width="2.5" width="101" x="303" y="303" /><text fill="black" x="354.0" y="354.0">21</text><rect fill="white" height="101" stroke="black" stroke-width="2.5" width="101" x="404" y="303" /><text fill="black" x="455.0" y="354.0">22</text><rect fill="white" height="101" stroke="black" stroke-width="2.5" width="101" x="505" y="303" /><text fill="black" x="556.0" y="354.0">23</text><rect fill="white" height="101" stroke="black" stroke-width="2.5" width="101" x="0" y="404" /><text fill="black" x="51.0" y="455.0">24</text><rect fill="white" height="101" stroke="black" stroke-width="2.5" width="101" x="101" y="404" /><text fill="black" x="152.0" y="455.0">25</text><rect fill="black" height="101" stroke="black" stroke-width="2.5" width="101" x="202" y="404" /><text fill="white" x="253.0" y="455.0">26</text><rect fill="black" height="101" stroke="black" stroke-width="2.5" width="101" x="303" y="404" /><text fill="white" x="354.0" y="455.0">27</text><rect fill="black" height="101" stroke="black" stroke-width="2.5" width="101" x="404" y="404" /><text fill="white" x="455.0" y="455.0">28</text><rect fill="black" height="101" stroke="black" stroke-width="2.5" width="101" x="505" y="404" /><text fill="white" x="556.0" y="455.0">29</text><rect fill="white" height="101" stroke="black" stroke-width="2.5" width="101" x="0" y="505" /><text fill="black" x="51.0" y="556.0">30</text><rect fill="white" height="101" stroke="black" stroke-width="2.5" width="101" x="101" y="505" /><text fill="black" x="152.0" y="556.0">31</text><rect fill="white" height="101" stroke="black" stroke-width="2.5" width="101" x="202" y="505" /><text fill="black" x="253.0" y="556.0">32</text><rect fill="white" height="101" stroke="black" stroke-width="2.5" width="101" x="303" y="505" /><text fill="black" x="354.0" y="556.0">33</text><rect fill="white" height="101" stroke="black" stroke-width="2.5" width="101" x="404" y="505" /><text fill="black" x="455.0" y="556.0">34</text><rect fill="gray" height="101" stroke="black" stroke-width="2.5" width="101" x="505" y="505" /><text fill="black" x="556.0" y="556.0">35</text></svg>