<?xml version="1.0" encoding="utf-8" ?>
<svg baseProfile="full" height="100%" version="1.1" width="100%" xmlns="http://www.w3.org/2000/svg" xmlns:ev="http://www.w3.org/2001/xml-events" xmlns:xlink="http://www.w3.org/1999/xlink"><defs /><rect fill="white" height="101" stroke="black" stroke-width="2.5" width="101" x="0" y="0" /><polyline fill="none" points="51.0,51.0 51.0,96.0" stroke="black" stroke-width="2.5" /><polyline fill="none" points="61.0,86.0 51.0,96.0" stroke="black" stroke-width="2.5" /><polyline fill="none" points="41.0,86.0 51.0,96.0" stroke="black" stroke-width="2.5" /><rect fill="white" height="101" stroke="black" stroke-width="2.5" width="101" x="101" y="0" /><polyline fill="none" points="107.0,51.0 152.0,51.0" stroke="black" stroke-width="2.5" /><polyline fill="none" points="117.0,61.0 107.0,51.0" stroke="black" stroke-width="2.5" /><polyline fill="none" points="117.0,41.0 107.0,51.0" stroke="black" stroke-width="2.5" /><rect fill="white" height="101" stroke="black" stroke-width="2.5" width="101" x="202" y="0" /><polyline fill="none" points="208.0,51.0 253.0,51.0" stroke="black" stroke-width="2.5" /><polyline fill="none" points="218.0,61.0 208.0,51.0" stroke="black" stroke-width="2.5" /><polyline fill="none" points="218.0,41.0 208.0,51.0" stroke="black" stroke-width="2.5" /><rect fill="white" height="101" stroke="black" stroke-width="2.5" width="101" x="303" y="0" /><polyline fill="none" points="309.0,51.0 354.0,51.0" stroke="black" stroke-width="2.5" /><polyline fill="none" points="319.0,61.0 309.0,51.0" stroke="black" stroke-width="2.5" /><polyline fill="none" points="319.0,41.0 309.0,51.0" stroke="black" stroke-width="2.5" /><rect fill="white" height="101" stroke="black" stroke-width="2.5" width="101" x="404" y="0" /><polyline fill="none" points="410.0,51.0 455.0,51.0" stroke="black" stroke-width="2.5" /><polyline fill="none" points="420.0,61.0 410.0,51.0" stroke="black" stroke-width="2.5" /><polyline fill="none" points="420.0,41.0 410.0,51.0" stroke="black" stroke-width="2.5" /><rect fill="white" height="101" stroke="black" stroke-width="2.5" width="101" x="505" y="0" /><polyline fill="none" points="511.0,51.0 556.0,51.0" stroke="black" stroke-width="2.5" /><polyline fill="none" points="521.0,61.0 511.0,51.0" stroke="black" stroke-width="2.5" /><polyline fill="none" points="521.0,41.0 511.0,51.0" stroke="black" stroke-width="2.5" /><rect fill="white" height="101" stroke="black" stroke-width="2.5" width="101" x="0" y="101" /><polyline fill="none" points="51.0,152.0 51.0,197.0" stroke="black" stroke-width="2.5" /><polyline fill="none" points="61.0,187.0 51.0,197.0" stroke="black" stroke-width="2.5" /><polyline fill="none" points="41.0,187.0 51.0,197.0" stroke="black" stroke-width="2.5" /><rect fill="black" height="101" stroke="black" stroke-width="2.5" width="101" x="101" y="101" /><rect fill="white" height="101" stroke="black" stroke-width="2.5" width="101" x="202" y="101" /><polyline fill="none" points="253.0,152.0 253.0,107.0" stroke="black" stroke-width="2.5" /><polyline fill="none" points="263.0,117.0 253.0,107.0" stroke="black" stroke-width="2.5" /><polyline fill="none" points="243.0,117.0 253.0,107.0" stroke="black" stroke-width="2.5" /><rect fill="white" height="101" stroke="black" stroke-width="2.5" width="101" x="303" y="101" /><polyline fill="none" points="354.0,152.0 354.0,107.0" stroke="black" stroke-width="2.5" /><polyline fill="none" points="364.0,117.0 354.0,107.0" stroke="black" stroke-width="2.5" /><polyline fill="none" points="344.0,117.0 354.0,107.0" stroke="black" stroke-width="2.5" /><polyline fill="none" points="309.0,152.0 354.0,152.0" stroke="black" stroke-width="2.5" /><polyline fill="none" points="319.0,162.0 309.0,152.0" stroke="black" stroke-width="2.5" /><polyline fill="none" points="319.0,142.0 309.0,152.0" stroke="black" stroke-width="2.5" /><rect fill="white" height="101" stroke="black" stroke-width="2.5" width="101" x="404" y="101" /><polyline fill="none" points="455.0,152.0 455.0,107.0" stroke="black" stroke-width="2.5" /><polyline fill="none" points="465.0,117.0 455.0,107.0" stroke="black" stroke-width="2.5" /><polyline fill="none" points="445.0,117.0 455.0,107.0" stroke="black" stroke-width="2.5" /><polyline fill="none" points="410.0,152.0 455.0,152.0" stroke="black" stroke-width="2.5" /><polyline fill="none" points="420.0,162.0 410.0,152.0" stroke="black" stroke-width="2.5" /><polyline fill="none" points="420.0,142.0 410.0,152.0" stroke="black" stroke-width="2.5" /><rect fill="white" height="101" stroke="black" stroke-width="2.5" width="101" x="505" y="101" /><polyline fill="none" points="556.0,152.0 556.0,107.0" stroke="black" stroke-width="2.5" /><polyline fill="none" points="566.0,117.0 556.0,107.0" stroke="black" stroke-width="2.5" /><polyline fill="none" points="546.0,117.0 556.0,107.0" stroke="black" stroke-width="2.5" /><polyline fill="none" points="511.0,152.0 556.0,152.0" stroke="black" stroke-width="2.5" /><polyline fill="none" points="521.0,162.0 511.0,152.0" stroke="black" stroke-width="2.5" /><polyline fill="none" points="521.0,142.0 511.0,152.0" stroke="black" stroke-width="2.5" /><rect fill="white" height="101" stroke="black" stroke-width="2.5" width="101" x="0" y="202" /><polyline fill="none" points="51.0,253.0 51.0,298.0" stroke="black" stroke-width="2.5" /><polyline fill="none" points="61.0,288.0 51.0,298.0" stroke="black" stroke-width="2.5" /><polyline fill="none" points="41.0,288.0 51.0,298.0" stroke="black" stroke-width="2.5" /><rect fill="black" height="101" stroke="black" stroke-width="2.5" width="101" x="101" y="202" /><rect fill="black" height="101" stroke="black" stroke-width="2.5" width="101" x="202" y="202" /><rect fill="white" height="101" stroke="black" stroke-width="2.5" width="101" x="303" y="202" /><polyline fill="none" points="354.0,253.0 354.0,208.0" stroke="black" stroke-width="2.5" /><polyline fill="none" points="364.0,218.0 354.0,208.0" stroke="black" stroke-width="2.5" /><polyline fill="none" points="344.0,218.0 354.0,208.0" stroke="black" stroke-width="2.5" /><rect fill="white" height="101" stroke="black" stroke-width="2.5" width="101" x="404" y="202" /><polyline fill="none" points="455.0,253.0 455.0,208.0" stroke="black" stroke-width="2.5" /><polyline fill="none" points="465.0,218.0 455.0,208.0" stroke="black" stroke-width="2.5" /><polyline fill="none" points="445.0,218.0 455.0,208.0" stroke="black" stroke-width="2.5" /><polyline fill="none" points="410.0,253.0 455.0,253.0" stroke="black" stroke-width="2.5" /><polyline fill="none" points="420.0,263.0 410.0,253.0" stroke="black" stroke-width="2.5" /><polyline fill="none" points="420.0,243.0 410.0,253.0" stroke="black" stroke-width="2.5" /><rect fill="white" height="101" stroke="black" stroke-width="2.5" width="101" x="505" y="202" /><polyline fill="none" points="556.0,253.0 556.0,208.0" stroke="black" stroke-width="2.5" /><polyline fill="none" points="566.0,218.0 556.0,208.0" stroke="black" stroke-width="2.5" /><polyline fill="none" points="546.0,218.0 556.0,208.0" stroke="black" stroke-width="2.5" /><polyline fill="none" points="511.0,253.0 556.0,253.0" stroke="black" stroke-width="2.5" /><polyline fill="none" points="521.0,263.0 511.0,253.0" stroke="black" stroke-width="2.5" /><polyline fill="none" points="521.0,243.0 511.0,253.0" stroke="black" stroke-width="2.5" /><rect fill="white" height="101" stroke="black" stroke-width="2.5" width="101" x="0" y="303" /><polyline fill="none" points="51.0,354.0 51.0,399.0" stroke="black" stroke-width="2.5" /><polyline fill="none" points="61.0,389.0 51.0,399.0" stroke="black" stroke-width="2.5" /><polyline fill="none" points="41.0,389.0 51.0,399.0" stroke="black" stroke-width="2.5" /><polyline fill="none" points="96.0,354.0 51.0,354.0" stroke="black" stroke-width="2.5" /><polyline fill="none" points="86.0,364.0 96.0,354.0" stroke="black" stroke-width="2.5" /><polyline fill="none" points="86.0,344.0 96.0,354.0" stroke="black" stroke-width="2.5" /><rect fill="white" height="101" stroke="black" stroke-width="2.5" width="101" x="101" y="303" /><polyline fill="none" points="152.0,354.0 152.0,399.0" stroke="black" stroke-width="2.5" /><polyline fill="none" points="162.0,389.0 152.0,399.0" stroke="black" stroke-width="2.5" /><polyline fill="none" points="142.0,389.0 152.0,399.0" stroke="black" stroke-width="2.5" /><rect fill="black" height="101" stroke="black" stroke-width="2.5" width="101" x="202" y="303" /><rect fill="white" height="101" stroke="black" stroke-width="2.5" width="101" x="303" y="303" /><polyline fill="none" points="354.0,354.0 354.0,309.0" stroke="black" stroke-width="2.5" /><polyline fill="none" points="364.0,319.0 354.0,309.0" stroke="black" stroke-width="2.5" /><polyline fill="none" points="344.0,319.0 354.0,309.0" stroke="black" stroke-width="2.5" /><rect fill="white" height="101" stroke="black" stroke-width="2.5" width="101" x="404" y="303" /><polyline fill="none" points="455.0,354.0 455.0,309.0" stroke="black" stroke-width="2.5" /><polyline fill="none" points="465.0,319.0 455.0,309.0" stroke="black" stroke-width="2.5" /><polyline fill="none" points="445.0,319.0 455.0,309.0" stroke="black" stroke-width="2.5" /><polyline fill="none" points="410.0,354.0 455.0,354.0" stroke="black" stroke-width="2.5" /><polyline fill="none" points="420.0,364.0 410.0,354.0" stroke="black" stroke-width="2.5" /><polyline fill="none" points="420.0,344.0 410.0,354.0" stroke="black" stroke-width="2.5" /><rect fill="white" height="101" stroke="black" stroke-width="2.5" width="101" x="505" y="303" /><polyline fill="none" points="556.0,354.0 556.0,309.0" stroke="black" stroke-width="2.5" /><polyline fill="none" points="566.0,319.0 556.0,309.0" stroke="black" stroke-width="2.5" /><polyline fill="none" points="546.0,319.0 556.0,309.0" stroke="black" stroke-width="2.5" /><polyline fill="none" points="511.0,354.0 556.0,354.0" stroke="black" stroke-width="2.5" /><polyline fill="none" points="521.0,364.0 511.0,354.0" stroke="black" stroke-width="2.5" /><polyline fill="none" points="521.0,344.0 511.0,354.0" stroke="black" stroke-width="2.5" /><rect fill="white" height="101" stroke="black" stroke-width="2.5" width="101" x="0" y="404" /><polyline fill="none" points="51.0,455.0 51.0,500.0" stroke="black" stroke-width="2.5" /><polyline fill="none" points="61.0,490.0 51.0,500.0" stroke="black" stroke-width="2.5" /><polyline fill="none" points="41.0,490.0 51.0,500.0" stroke="black" stroke-width="2.5" /><polyline fill="none" points="96.0,455.0 51.0,455.0" stroke="black" stroke-width="2.5" /><polyline fill="none" points="86.0,465.0 96.0,455.0" stroke="black" stroke-width="2.5" /><polyline fill="none" points="86.0,445.0 96.0,455.0" stroke="black" stroke-width="2.5" /><rect fill="white" height="101" stroke="black" stroke-width="2.5" width="101" x="101" y="404" /><polyline fill="none" points="152.0,455.0 152.0,500.0" stroke="black" stroke-width="2.5" /><polyline fill="none" points="162.0,490.0 152.0,500.0" stroke="black" stroke-width="2.5" /><polyline fill="none" points="142.0,490.0 152.0,500.0" stroke="black" stroke-width="2.5" /><rect fill="black" height="101" stroke="black" stroke-width="2.5" width="101" x="202" y="404" /><rect fill="black" height="101" stroke="black" stroke-width="2.5" width="101" x="303" y="404" /><rect fill="black" height="101" stroke="black" stroke-width="2.5" width="101" x="404" y="404" /><rect fill="black" height="101" stroke="black" stroke-width="2.5" width="101" x="505" y="404" /><rect fill="white" height="101" stroke="black" stroke-width="2.5" width="101" x="0" y="505" /><polyline fill="none" points="96.0,556.0 51.0,556.0" stroke="black" stroke-width="2.5" /><polyline fill="none" points="86.0,566.0 96.0,556.0" stroke="black" stroke-width="2.5" /><polyline fill="none" points="86.0,546.0 96.0,556.0" stroke="black" stroke-width="2.5" /><rect fill="white" height="101" stroke="black" stroke-width="2.5" width="101" x="101" y="505" /><polyline fill="none" points="197.0,556.0 152.0,556.0" stroke="black" stroke-width="2.5" /><polyline fill="none" points="187.0,566.0 197.0,556.0" stroke="black" stroke-width="2.5" /><polyline fill="none" points="187.0,546.0 197.0,556.0" stroke="black" stroke-width="2.5" /><rect fill="white" height="101" stroke="black" stroke-width="2.5" width="101" x="202" y="505" /><polyline fill="none" points="298.0,556.0 253.0,556.0" stroke="black" stroke-width="2.5" /><polyline fill="none" points="288.0,566.0 298.0,556.0" stroke="black" stroke-width="2.5" /><polyline fill="none" points="288.0,546.0 298.0,556.0" stroke="black" stroke-width="2.5" /><rect fill="white" height="101" stroke="black" stroke-width="2.5" width="101" x="303" y="505" /><polyline fill="none" points="399.0,556.0 354.0,556.0" stroke="black" stroke-width="2.5" /><polyline fill="none" points="389.0,566.0 399.0,556.0" stroke="black" stroke-width="2.5" /><polyline fill="none" points="389.0,546.0 399.0,556.0" stroke="black" stroke-width="2.5" /><rect fill="white" height="101" stroke="black" stroke-width="2.5" width="101" x="404" y="505" /><polyline fill="none" points="500.0,556.0 455.0,556.0" stroke="black" stroke-width="2.5" /><polyline fill="none" points="490.0,566.0 500.0,556.0" stroke="black" stroke-width="2.5" /><polyline fill="none" points="490.0,546.0 500.0,556.0" stroke="black" stroke-width="2.5" /><rect fill="gray" height="101" stroke="black" stroke-width="2.5" width="101" x="505" y="505" /></svg>